<svg width="24" height="24" viewBox="5 5 13.5 13.5" fill="none" xmlns="http://www.w3.org/2000/svg">
<path d="M6.41409 15.586H17.5861C17.7838 15.586 17.9771 15.5273 18.1416 15.4174C18.306 15.3076 18.4341 15.1514 18.5098 14.9687C18.5854 14.786 18.6052 14.585 18.5667 14.391C18.5281 14.1971 18.4329 14.0189 18.2931 13.879L12.7071 8.29306C12.5196 8.10559 12.2653 8.00027 12.0001 8.00027C11.7349 8.00027 11.4806 8.10559 11.2931 8.29306L5.70709 13.879C5.56728 14.0189 5.47208 14.1971 5.43351 14.391C5.39494 14.585 5.41475 14.786 5.49042 14.9687C5.56609 15.1514 5.69423 15.3076 5.85864 15.4174C6.02305 15.5273 6.21634 15.586 6.41409 15.586Z" fill="#353535"/>
</svg>
