<svg width="17" height="16" viewBox="0 0 17 16" fill="none" xmlns="http://www.w3.org/2000/svg">
<path d="M8.5 12.1667C8.36739 12.1667 8.24022 12.2194 8.14645 12.3132C8.05268 12.4069 8 12.5341 8 12.6667C8 12.7993 8.05268 12.9265 8.14645 13.0203C8.24022 13.114 8.36739 13.1667 8.5 13.1667H12.5C12.8094 13.1667 13.1062 13.0438 13.325 12.825C13.5438 12.6062 13.6667 12.3095 13.6667 12V4.00004C13.6667 3.69062 13.5438 3.39388 13.325 3.17508C13.1062 2.95629 12.8094 2.83337 12.5 2.83337H8.5C8.36739 2.83337 8.24022 2.88605 8.14645 2.97982C8.05268 3.07359 8 3.20077 8 3.33337C8 3.46598 8.05268 3.59316 8.14645 3.68693C8.24022 3.7807 8.36739 3.83337 8.5 3.83337H12.5C12.5442 3.83337 12.5866 3.85093 12.6179 3.88219C12.6491 3.91345 12.6667 3.95584 12.6667 4.00004V12C12.6667 12.0442 12.6491 12.0866 12.6179 12.1179C12.5866 12.1491 12.5442 12.1667 12.5 12.1667H8.5Z" fill="#E92C2C"/>
<path fill-rule="evenodd" clip-rule="evenodd" d="M10.1687 9.57669C10.6287 9.57669 11.002 9.20336 11.002 8.74336V7.25003C11.002 6.79003 10.6287 6.41669 10.1687 6.41669H7.09334L7.08001 6.27003L7.04401 5.89936C7.03128 5.76844 6.98716 5.64253 6.91541 5.53229C6.84366 5.42205 6.74638 5.33074 6.63182 5.26611C6.51727 5.20147 6.38882 5.16541 6.25736 5.16099C6.1259 5.15656 5.99531 5.1839 5.87667 5.24069C4.78653 5.76208 3.79992 6.47675 2.96467 7.35003L2.89867 7.41869C2.74962 7.57421 2.66641 7.78129 2.66641 7.99669C2.66641 8.2121 2.74962 8.41918 2.89867 8.57469L2.96534 8.64336C3.80039 9.51657 4.78677 10.2312 5.87667 10.7527C5.99531 10.8095 6.1259 10.8368 6.25736 10.8324C6.38882 10.828 6.51727 10.7919 6.63182 10.7273C6.74638 10.6626 6.84366 10.5713 6.91541 10.4611C6.98716 10.3509 7.03128 10.2249 7.04401 10.094L7.08001 9.72336L7.09334 9.57669H10.1687ZM6.63001 8.57669C6.50277 8.57679 6.38037 8.62539 6.28771 8.71259C6.19506 8.79979 6.13914 8.91903 6.13134 9.04603C6.11889 9.23936 6.10334 9.43291 6.08467 9.62669L6.07401 9.73469C5.20396 9.28572 4.41238 8.69878 3.73001 7.99669C4.41238 7.2946 5.20396 6.70767 6.07401 6.25869L6.08467 6.36669C6.10334 6.56003 6.11889 6.75358 6.13134 6.94736C6.13914 7.07435 6.19506 7.19359 6.28771 7.28079C6.38037 7.36799 6.50277 7.41659 6.63001 7.41669H10.002V8.57669H6.63001Z" fill="#E92C2C"/>
</svg>
